# xmcd CD database file
#
# Track frame offsets:
#	150
#	14929
#	41180
#	71035
#	90255
#	97368
#	117833
#	150205
#	182251
#	193436
#	210933
#
# Disc length: 3068 seconds
#
# Revision: 0
# Processed by: cddbd v1.5.2PL0 Copyright (c) Steve Scherf et al.
# Submitted via: CDex 1.51
#
DISCID=940bfa0b
DTITLE=Tony Scott - A Jazz Life
DYEAR=2007
DGENRE=Jazz
TTITLE0=Low, down, dirty, good for nothing blues
TTITLE1=Caravan
TTITLE2=Come sunday
TTITLE3=Summertime
TTITLE4=Satin doll
TTITLE5=Nina's dance
TTITLE6=Round midnight
TTITLE7=You don't know what love is
TTITLE8=Body and soul
TTITLE9=Night in Tunisia
TTITLE10=Lush life
EXTD=YEAR: 2007
EXTT0=
EXTT1=
EXTT2=
EXTT3=
EXTT4=
EXTT5=
EXTT6=
EXTT7=
EXTT8=
EXTT9=
EXTT10=
PLAYORDER=
